<svg version="1.1" xmlns="http://www.w3.org/2000/svg" viewBox="-264.30577392578124 -1042.4320556640625 6008.870703125 1544.1920532226563"><desc>Created with Snap</desc><defs></defs><g><g><g transform="matrix(1.024,0,0,-1.024,0,0)"><g transform="matrix(1,0,0,1,0,0)"><path d="M254 -10Q198 -10 158 4Q118 18 93 38Q68 58 55 78Q43 98 42 110Q41 121 49 127Q57 133 65 133L110 133Q115 133 118 131Q122 130 128 123Q141 109 157 95Q173 81 196 72Q220 63 255 63Q306 63 339 82Q372 102 372 140Q372 165 358 180Q345 195 310 207Q276 219 216 232Q156 246 121 266Q86 287 71 315Q56 344 56 380Q56 417 78 451Q100 486 142 508Q185 530 249 530Q301 530 338 517Q375 504 399 484Q423 465 435 446Q447 427 448 414Q449 404 442 397Q435 391 426 391L384 391Q377 391 372 394Q368 397 364 401Q354 414 340 427Q327 440 305 448Q284 457 249 457Q199 457 174 436Q149 415 149 383Q149 364 160 349Q171 334 202 322Q233 310 294 296Q360 283 398 261Q436 239 452 210Q468 181 468 143Q468 101 444 66Q420 31 372 10Q324 -10 254 -10Z" fill="#0560af" style=""></path></g><g transform="matrix(1,0,0,1,510,0)"><path d="M148 0L98 0Q88 0 81 6Q75 13 75 23L75 687Q75 697 81 703Q88 710 98 710L148 710Q159 710 165 703Q171 697 171 687L171 454Q198 488 237 509Q276 530 336 530Q401 530 446 501Q492 473 515 422Q539 372 539 305L539 23Q539 13 533 6Q527 0 516 0L466 0Q456 0 449 6Q443 13 443 23L443 300Q443 370 409 409Q375 449 309 449Q247 449 209 409Q171 370 171 300L171 23Q171 13 165 6Q159 0 148 0Z" fill="#0560af" style=""></path></g><g transform="matrix(1,0,0,1,1119,0)"><g transform="matrix(1.1763,0,0,1.1763,-152.4953,683.4602)"><g transform="matrix(1,0,0,-1,0,0)">
<path fill="#0560af" d="M360,589.54c-103.11,0-187-83.89-187-187s83.89-187,187-187c2.94,0,5.9,0.07,8.8,0.2
	c4.971,0.229,8.814,4.444,8.585,9.415c-0.229,4.971-4.444,8.814-9.415,8.585c-2.63-0.12-5.31-0.18-8-0.18
	c-93.19,0-169,75.81-169,169s75.81,169,169,169s169-75.82,169-169c0.025-60.32-32.113-116.077-84.32-146.29
	c-4.404-2.304-6.107-7.742-3.803-12.147c2.304-4.404,7.742-6.107,12.147-3.803c0.224,0.117,0.443,0.244,0.656,0.379
	c57.781,33.405,93.362,95.088,93.35,161.83C547,505.65,463.11,589.54,360,589.54z" style=""></path>
<path fill="#0560af" d="M365.43,271.44c-4.863,0.002-8.849-3.859-9-8.72c-0.295-18.294,1.024-36.578,3.94-54.64
	c6.62-39.91,20.41-65.67,41-76.57c4.393-2.325,9.84-0.648,12.165,3.745s0.648,9.84-3.745,12.165
	c-31.47,16.66-36.19,88.47-35.36,114.73c0.157,4.968-3.742,9.122-8.71,9.28L365.43,271.44z" style=""></path>
<path fill="#0560af" d="M372.53,276.14c-18.46,0-34.39-11.48-35.36-12.18c-4.012-2.938-4.883-8.573-1.945-12.585
	c2.938-4.012,8.573-4.883,12.585-1.945c0.37,0.27,23.34,16.56,38.92,3.55c3.816-3.187,9.493-2.676,12.68,1.14
	c3.187,3.816,2.676,9.493-1.14,12.68C391.093,272.908,381.954,276.224,372.53,276.14z" style=""></path>
<path fill="#0560af" d="M372.45,271.44c-4.971,0.003-9.002-4.025-9.005-8.995c0-0.098,0.001-0.196,0.005-0.295
	c0-1.1,1.05-27.13,17.45-55.22c15.11-25.87,46.6-58.46,110.81-66.83c4.929-0.638,9.443,2.84,10.081,7.77
	c0.036,0.276,0.059,0.553,0.069,0.83c0.05,1.2,0.87,29.66-14.65,59.08c-26.08,49.44-76.58,61.9-114.35,63.65L372.45,271.44z
	 M483.27,159.64c-39.83,7.43-68.88,26.13-86.42,55.68c-6.803,11.545-11.562,24.177-14.07,37.34c42.07-4.27,71.71-21.95,88.18-52.65
	C477.551,187.441,481.727,173.748,483.27,159.64L483.27,159.64z" style=""></path>
<path fill="#0560af" d="M372.46,265.7c-4.971,0.006-9.005-4.018-9.011-8.989c-0.003-2.872,1.364-5.573,3.681-7.271
	c0.15-0.11,15.46-11.34,32-24.72c28.24-22.92,36.51-33,38.93-37c2.576-4.253,8.112-5.611,12.365-3.035
	c4.253,2.576,5.611,8.112,3.035,12.365c-12.26,20.22-69.2,62.23-75.66,66.95C376.25,265.128,374.377,265.724,372.46,265.7z" style=""></path>
<path fill="#0560af" d="M239.89,369c-4.871,0.002-8.859-3.871-9-8.74c-0.91-31.91,22.53-46.27,23.53-46.87
	c4.304-2.486,9.809-1.012,12.295,3.292c2.423,4.195,1.091,9.556-3.015,12.128c-0.76,0.48-15.42,9.95-14.82,30.94
	c0.14,4.967-3.773,9.108-8.74,9.25L239.89,369z" style=""></path>
<path fill="#0560af" d="M295.88,422.71c-3.149,0-6.069-1.646-7.7-4.34c-16.54-27.3-3.25-51.36-2.67-52.37
	c2.478-4.309,7.98-5.793,12.289-3.315c4.249,2.444,5.761,7.838,3.401,12.135c-0.42,0.78-8.51,16.26,2.37,34.22
	c2.579,4.249,1.225,9.784-3.024,12.364C299.14,422.258,297.526,422.709,295.88,422.71L295.88,422.71z" style=""></path>
<path fill="#0560af" d="M246.82,471.16c-2.947,0.001-5.707-1.441-7.39-3.86c-18.25-26.19-6.52-51.05-6-52.09
	c2.221-4.447,7.626-6.252,12.073-4.031c4.354,2.174,6.191,7.415,4.147,11.831c-0.38,0.82-7.44,16.77,4.56,34
	c2.844,4.076,1.845,9.687-2.231,12.531c-1.51,1.054-3.308,1.619-5.149,1.619H246.82z" style=""></path>
<desc>Created with Snap</desc><defs></defs></g></g></g><g transform="matrix(1,0,0,1,1660.9262,0)"><path d="M147 -190L98 -190Q88 -190 81 -184Q75 -177 75 -167L75 497Q75 507 81 513Q88 520 98 520L144 520Q154 520 160 513Q167 507 167 497L167 453Q191 486 231 508Q271 530 331 530Q387 530 426 511Q466 492 491 459Q517 426 530 384Q543 342 545 294Q546 278 546 260Q546 242 545 226Q543 179 530 136Q517 94 491 61Q466 29 426 9Q387 -10 331 -10Q273 -10 233 11Q194 33 169 65L169 -167Q169 -177 163 -184Q157 -190 147 -190ZM310 71Q362 71 391 93Q421 116 434 152Q447 189 449 231Q450 260 449 289Q447 331 434 367Q421 404 391 426Q362 449 310 449Q261 449 230 426Q200 403 185 367Q171 332 169 295Q168 279 168 257Q168 235 169 218Q170 183 185 149Q201 115 232 93Q263 71 310 71Z" fill="#0560af" style=""></path></g><g transform="matrix(1,0,0,1,2256.9262,0)"><path d="M339 -10Q247 -10 186 24Q126 58 95 119Q64 180 61 261Q60 302 60 349Q60 396 61 439Q64 520 95 581Q126 642 186 676Q247 710 339 710Q408 710 460 691Q512 672 546 640Q581 608 599 568Q617 529 619 487Q620 478 613 472Q607 466 598 466L543 466Q534 466 527 471Q521 476 518 489Q501 567 454 596Q408 625 339 625Q258 625 211 579Q164 534 161 434Q158 352 161 266Q164 166 211 120Q258 75 339 75Q408 75 454 104Q501 133 518 211Q521 224 527 229Q534 234 543 234L598 234Q607 234 613 228Q620 223 619 214Q617 172 599 132Q581 92 546 60Q512 28 460 9Q408 -10 339 -10Z" fill="#0560af" style=""></path></g><g transform="matrix(1,0,0,1,2922.9262,0)"><path d="M145 0L97 0Q87 0 80 6Q74 13 74 23L74 497Q74 507 80 513Q87 520 97 520L145 520Q155 520 161 513Q168 507 168 497L168 23Q168 13 161 6Q155 0 145 0ZM152 617L89 617Q79 617 72 623Q66 630 66 640L66 694Q66 704 72 711Q79 718 89 718L152 718Q162 718 169 711Q176 704 176 694L176 640Q176 630 169 623Q162 617 152 617Z" fill="#0560af" style=""></path></g><g transform="matrix(1,0,0,1,3164.9262,0)"><path d="M146 0L97 0Q87 0 80 6Q74 13 74 23L74 496Q74 506 80 513Q87 520 97 520L143 520Q153 520 160 513Q167 506 167 496L167 452Q187 486 222 503Q257 520 307 520L346 520Q356 520 362 513Q369 507 369 497L369 456Q369 446 362 440Q356 434 346 434L286 434Q232 434 201 402Q170 371 170 317L170 23Q170 13 163 6Q156 0 146 0Z" fill="#0560af" style=""></path></g><g transform="matrix(1,0,0,1,3544.9262,0)"><path d="M284 -10Q213 -10 161 17Q110 45 82 96Q54 148 52 220Q51 235 51 260Q51 285 52 300Q54 372 82 423Q110 475 161 502Q213 530 284 530Q342 530 383 514Q425 498 452 473Q479 448 492 419Q506 390 507 364Q508 354 501 348Q494 342 484 342L436 342Q426 342 421 346Q416 351 411 362Q393 411 362 431Q331 451 285 451Q225 451 187 414Q150 377 147 295Q146 259 147 225Q150 142 187 105Q225 69 285 69Q331 69 362 89Q393 109 411 158Q416 169 421 174Q426 179 436 179L484 179Q494 179 501 172Q508 166 507 156Q506 135 498 113Q490 91 472 68Q455 46 429 28Q403 11 367 0Q331 -10 284 -10Z" fill="#0560af" style=""></path></g><g transform="matrix(1,0,0,1,4096.9262,0)"><path d="M268 -10Q204 -10 159 18Q115 47 92 98Q69 149 69 215L69 497Q69 507 75 513Q82 520 92 520L142 520Q152 520 158 513Q165 507 165 497L165 220Q165 71 295 71Q357 71 394 110Q432 150 432 220L432 497Q432 507 438 513Q445 520 455 520L505 520Q515 520 521 513Q527 507 527 497L527 23Q527 13 521 6Q515 0 505 0L458 0Q448 0 441 6Q435 13 435 23L435 67Q408 32 369 11Q331 -10 268 -10Z" fill="#0560af" style=""></path></g><g transform="matrix(1,0,0,1,4698.9262,0)"><path d="M145 0L97 0Q87 0 80 6Q74 13 74 23L74 497Q74 507 80 513Q87 520 97 520L145 520Q155 520 161 513Q168 507 168 497L168 23Q168 13 161 6Q155 0 145 0ZM152 617L89 617Q79 617 72 623Q66 630 66 640L66 694Q66 704 72 711Q79 718 89 718L152 718Q162 718 169 711Q176 704 176 694L176 640Q176 630 169 623Q162 617 152 617Z" fill="#0560af" style=""></path></g><g transform="matrix(1,0,0,1,4940.9262,0)"><path d="M346 0L277 0Q221 0 186 21Q151 43 135 82Q119 122 119 176L119 440L41 440Q31 440 24 446Q18 453 18 463L18 497Q18 507 24 513Q31 520 41 520L119 520L119 687Q119 697 125 703Q132 710 142 710L189 710Q199 710 205 703Q212 697 212 687L212 520L336 520Q347 520 353 513Q359 507 359 497L359 463Q359 453 353 446Q347 440 336 440L212 440L212 183Q212 136 228 109Q244 82 285 82L346 82Q356 82 362 75Q369 69 369 59L369 23Q369 13 362 6Q356 0 346 0Z" fill="#0560af" style=""></path></g></g></g></g></svg>